<svg xmlns="http://www.w3.org/2000/svg" width="91.206" height="118.779" viewBox="0 0 91.206 118.779">
  <g id="Group_8" data-name="Group 8" transform="translate(-837 -564)">
    <path id="Path_11" data-name="Path 11" d="M71.161,0H9.6C7.889,0,6.5,1.389,6.5,4.085V116.658c0,.732,1.389,2.121,3.1,2.121h85c1.714,0,3.1-1.389,3.1-2.121V27.527c0-1.476-.2-1.951-.545-2.3L72.48.545A1.874,1.874,0,0,0,71.161,0Z" transform="translate(830.5 564)" fill="#f5f5f5"/>
    <path id="Path_12" data-name="Path 12" d="M37.5.151V25.283H62.632Z" transform="translate(865.253 564.169)" fill="#e0e0e0"/>
    <path id="Path_13" data-name="Path 13" d="M21.863,62.938h0a3.405,3.405,0,0,1-2.051-.691,5.083,5.083,0,0,1-2.365-4.755c.386-3.453,4.656-7.067,12.695-10.75a142.379,142.379,0,0,0,8.035-22.8C36.06,19.333,34,13.356,35.5,9.85a4.069,4.069,0,0,1,2.405-2.577,10.413,10.413,0,0,1,2.155-.365c1.069,0,2.009,1.377,2.675,2.225.626.8,2.045,2.488-.791,14.427A67.776,67.776,0,0,0,52.738,39.6a41.265,41.265,0,0,1,7.123-.759c3.322,0,5.334.774,6.155,2.369.679,1.319.4,2.861-.827,4.581a5.637,5.637,0,0,1-4.709,2.526c-2.579,0-5.583-1.629-8.932-4.847a101.631,101.631,0,0,0-18.725,5.986,60.182,60.182,0,0,1-5.054,9.017C25.594,61.517,23.719,62.938,21.863,62.938ZM27.51,52.065c-4.533,2.547-6.38,4.641-6.514,5.82-.021.2-.078.708.914,1.468C22.226,59.254,24.072,58.412,27.51,52.065Zm28.925-9.422c1.729,1.33,2.151,2,3.281,2a3.2,3.2,0,0,0,2.566-.935,3.358,3.358,0,0,0,.488-.88c-.261-.138-.607-.418-2.492-.418A31.012,31.012,0,0,0,56.435,42.644ZM40.59,28.683a151.214,151.214,0,0,1-5.672,16.044A105.98,105.98,0,0,1,48.7,40.442,72.6,72.6,0,0,1,40.59,28.683ZM39.3,10.734c-.208.07-2.821,3.727.2,6.821C41.519,13.07,39.394,10.7,39.3,10.734Z" transform="translate(842.74 571.744)" fill="#cc4b4c"/>
    <path id="Path_14" data-name="Path 14" d="M94.6,75.058H9.6a3.1,3.1,0,0,1-3.1-3.1V39H97.706V71.955A3.1,3.1,0,0,1,94.6,75.058Z" transform="translate(830.5 607.721)" fill="#cc4b4c"/>
    <g id="Group_4" data-name="Group 4" transform="translate(856.607 655.044)">
      <path id="Path_15" data-name="Path 15" d="M19.225,64.3H15.744V42.924h6.147a8.627,8.627,0,0,1,2.7.435,7.331,7.331,0,0,1,2.393,1.3,6.812,6.812,0,0,1,1.712,2.1,5.824,5.824,0,0,1,.653,2.77,7.577,7.577,0,0,1-.551,2.944A6.153,6.153,0,0,1,27.255,54.7a6.929,6.929,0,0,1-2.378,1.391,9.15,9.15,0,0,1-3.073.492H19.223V64.3Zm0-18.733V54.03h3.19a3.79,3.79,0,0,0,1.262-.218,3.179,3.179,0,0,0,1.145-.711,3.473,3.473,0,0,0,.84-1.377,6.521,6.521,0,0,0,.318-2.189,5.921,5.921,0,0,0-.144-1.2,3.473,3.473,0,0,0-.594-1.3,3.515,3.515,0,0,0-1.262-1.044,4.689,4.689,0,0,0-2.147-.42H19.225Z" transform="translate(-15.744 -42.924)" fill="#fff"/>
      <path id="Path_16" data-name="Path 16" d="M41.339,53.016a15.7,15.7,0,0,1-.566,4.509,11.21,11.21,0,0,1-1.436,3.133,7.376,7.376,0,0,1-1.958,1.987,9.819,9.819,0,0,1-2.1,1.088,8.685,8.685,0,0,1-1.856.465,12.359,12.359,0,0,1-1.247.1h-8.09V42.924h6.437a12.231,12.231,0,0,1,4.741.855,9.843,9.843,0,0,1,3.394,2.276,9.342,9.342,0,0,1,2.015,3.232A10.7,10.7,0,0,1,41.339,53.016ZM31.016,61.744q3.538,0,5.1-2.261a11.479,11.479,0,0,0,1.565-6.554,11.1,11.1,0,0,0-.318-2.639,5.645,5.645,0,0,0-1.232-2.363,6.5,6.5,0,0,0-2.48-1.712,10.677,10.677,0,0,0-4.06-.653h-2.03V61.744h3.451Z" transform="translate(-6.394 -42.924)" fill="#fff"/>
      <path id="Path_17" data-name="Path 17" d="M38.136,45.563v6.728h8.932v2.378H38.136V64.3H34.6V42.924H47.965v2.639Z" transform="translate(5.392 -42.924)" fill="#fff"/>
    </g>
  </g>
</svg>
