<svg xmlns="http://www.w3.org/2000/svg" width="123.923" height="118.779" viewBox="0 0 123.923 118.779">
  <g id="powerpoint_1_" data-name="powerpoint (1)" transform="translate(0 -10.626)">
    <g id="Group_5" data-name="Group 5" transform="translate(0 10.626)">
      <path id="Path_18" data-name="Path 18" d="M365.249,117.377a2.582,2.582,0,0,0-2.582,2.582v15.49a2.582,2.582,0,0,0,2.582,2.582h15.49a2.582,2.582,0,0,0,2.582-2.582A18.072,18.072,0,0,0,365.249,117.377Z" transform="translate(-274.888 -91.539)" fill="#ff5722"/>
      <path id="Path_19" data-name="Path 19" d="M300.559,160.189a7.745,7.745,0,0,1-7.745-7.745V139.8a18.031,18.031,0,1,0,20.39,20.39Z" transform="translate(-210.198 -108.534)" fill="#ff5722"/>
      <path id="Path_20" data-name="Path 20" d="M71.317,11.2a2.582,2.582,0,0,0-2.189-.516L2,26.178a2.582,2.582,0,0,0-2,2.54V116.5a2.582,2.582,0,0,0,2.189,2.551l67.125,10.327a2.582,2.582,0,0,0,2.974-2.551V13.228A2.58,2.58,0,0,0,71.317,11.2Z" transform="translate(0 -10.626)" fill="#ff5722"/>
      <path id="Path_21" data-name="Path 21" d="M331.549,151.482H279.915a2.582,2.582,0,0,1,0-5.164h49.053V58.54H279.915a2.582,2.582,0,1,1,0-5.163h51.634a2.582,2.582,0,0,1,2.582,2.582V148.9A2.581,2.581,0,0,1,331.549,151.482Z" transform="translate(-210.208 -43.03)" fill="#ff5722"/>
      <path id="Path_22" data-name="Path 22" d="M316.059,378.54H279.915a2.582,2.582,0,0,1,0-5.164h36.144a2.582,2.582,0,0,1,0,5.164Z" transform="translate(-210.208 -285.577)" fill="#ff5722"/>
      <path id="Path_23" data-name="Path 23" d="M316.059,314.54H279.915a2.582,2.582,0,0,1,0-5.164h36.144a2.582,2.582,0,0,1,0,5.164Z" transform="translate(-210.208 -237.068)" fill="#ff5722"/>
    </g>
    <path id="Path_24" data-name="Path 24" d="M87.915,206.514a2.582,2.582,0,0,1-2.582-2.582V162.625a2.582,2.582,0,0,1,2.582-2.582H98.242a12.909,12.909,0,0,1,12.909,12.909v5.163a12.909,12.909,0,0,1-12.909,12.909H90.5v12.909A2.582,2.582,0,0,1,87.915,206.514ZM90.5,185.86h7.745a7.745,7.745,0,0,0,7.745-7.745v-5.163a7.745,7.745,0,0,0-7.745-7.745H90.5Z" transform="translate(-64.68 -113.253)" fill="#fafafa"/>
  </g>
</svg>
