<svg xmlns="http://www.w3.org/2000/svg" width="105.374" height="101" viewBox="0 0 105.374 101">
  <g id="word" transform="translate(0 -10.626)">
    <g id="Group_6" data-name="Group 6" transform="translate(0 10.626)">
      <path id="Path_25" data-name="Path 25" d="M60.642,11.117a2.2,2.2,0,0,0-1.862-.439L1.7,23.85A2.2,2.2,0,0,0,0,26.01v74.64a2.2,2.2,0,0,0,1.862,2.169L58.938,111.6a2.2,2.2,0,0,0,2.529-2.169V12.838A2.194,2.194,0,0,0,60.642,11.117Z" transform="translate(0 -10.626)" fill="#1565c0"/>
      <path id="Path_26" data-name="Path 26" d="M323.434,136.8H279.528a2.2,2.2,0,0,1,0-4.391h41.71V57.767h-41.71a2.2,2.2,0,1,1,0-4.39h43.906a2.2,2.2,0,0,1,2.2,2.2V134.6A2.2,2.2,0,0,1,323.434,136.8Z" transform="translate(-220.256 -44.578)" fill="#1565c0"/>
    </g>
    <path id="Path_27" data-name="Path 27" d="M71.126,216.27a2.2,2.2,0,0,1-2.107-1.589l-6.674-23.349L55.672,214.68a2.283,2.283,0,0,1-4.219,0l-8.781-30.734a2.2,2.2,0,1,1,4.184-1.331q.019.061.035.123l6.674,23.345,6.674-23.349a2.283,2.283,0,0,1,4.219,0l6.669,23.349L77.8,182.739a2.169,2.169,0,0,1,2.664-1.52l.049.014a2.2,2.2,0,0,1,1.506,2.713L73.238,214.68A2.2,2.2,0,0,1,71.126,216.27Z" transform="translate(-33.807 -135.378)" fill="#fafafa"/>
    <g id="Group_7" data-name="Group 7" transform="translate(57.077 32.596)">
      <path id="Path_28" data-name="Path 28" d="M314.653,121.767H279.528a2.2,2.2,0,0,1,0-4.391h35.125a2.2,2.2,0,0,1,0,4.391Z" transform="translate(-277.333 -117.376)" fill="#1565c0"/>
      <path id="Path_29" data-name="Path 29" d="M314.653,185.767H279.528a2.2,2.2,0,0,1,0-4.391h35.125a2.2,2.2,0,1,1,0,4.391Z" transform="translate(-277.333 -168.204)" fill="#1565c0"/>
      <path id="Path_30" data-name="Path 30" d="M314.653,249.767H279.528a2.2,2.2,0,0,1,0-4.391h35.125a2.2,2.2,0,0,1,0,4.391Z" transform="translate(-277.333 -219.033)" fill="#1565c0"/>
      <path id="Path_31" data-name="Path 31" d="M314.653,313.767H279.528a2.2,2.2,0,1,1,0-4.391h35.125a2.2,2.2,0,1,1,0,4.391Z" transform="translate(-277.333 -269.861)" fill="#1565c0"/>
      <path id="Path_32" data-name="Path 32" d="M314.653,377.767H279.528a2.2,2.2,0,1,1,0-4.391h35.125a2.2,2.2,0,1,1,0,4.391Z" transform="translate(-277.333 -320.689)" fill="#1565c0"/>
    </g>
  </g>
</svg>
